<svg xmlns="http://www.w3.org/2000/svg">

  <style>
    :root svg:not(:target) {
      display: none;
    }
  </style>

  <svg id="house-icon" viewBox="0 0 75 72">
    <path fill="#81B3D2" fill-rule="evenodd" d="M72.9 39.18 75 37.1l-9.94-9.84V.4H51.2v13.12L37.45 0 0 37.2l2.1 2.08 7.84-7.76v37.6H6.02V72h64.16v-2.88h-5.12v-37.7l7.83 7.76ZM54.11 3.38h7.93v20.98l-7.93-7.85V3.38Zm7.93 65.64h-49.1V28.54l24.5-24.36 24.6 24.36v40.48Zm-31.93-4.48h16.06V40.77H30.12v23.77Zm13.05-2.88H33.03v-18h10.14v18ZM37.85 35.3a7.78 7.78 0 0 1-7.73-7.75 7.63 7.63 0 0 1 7.73-7.66 7.72 7.72 0 0 1 7.83 7.66 7.8 7.8 0 0 1-7.83 7.75Zm5.02-7.75a5.01 5.01 0 0 0-10.04 0 5.01 5.01 0 0 0 10.04 0ZM20.08 40.77h-3.01v3.88h3.01v-3.88Zm3.01 0h3.01v3.88h-3v-3.88Zm-3.01 5.97h-3.01v3.88h3.01v-3.88Zm3.01 0h3.01v3.88h-3v-3.88Zm29.12-5.97H49.2v3.88h3v-3.88Zm3.01 0h3.01v3.88h-3v-3.88Zm-3.01 5.97H49.2v3.88h3v-3.88Zm3.01 0h3.01v3.88h-3v-3.88Z" clip-rule="evenodd"/>
  </svg>

  <svg id="burger-icon" viewBox="0 0 76 69">
    <path fill="#81B3D2" fill-rule="evenodd" d="M70.53 30.37c.02-.82.06-1.94-.02-2.23C69.81 12.52 55.45 0 37.8 0S5.69 12.52 4.99 28.14v3H70.5l.02-.77ZM37.8 3c15.96 0 29.12 11.22 29.72 25.14H7.98C8.68 14.22 21.84 3 37.8 3ZM21.24 42.86l-5.38-4-5.49 4L4 38.16l1.8-2.4 4.58 3.3 5.49-4 5.38 4 5.49-4 5.49 4 5.48-4 5.39 4 5.48-4 5.49 4 5.48-4 5.49 4 4.59-3.3 1.7 2.4-6.3 4.7-5.48-4-5.48 4-5.49-4-5.48 4-5.39-4-5.48 4-5.49-4-5.49 4ZM4.3 46.06H71.7c2.4 0 4.29 2.01 4.29 4.21v3.5c0 2.41-2 4.31-4.29 4.31h-1v1c0 5.41-4.38 9.92-9.87 9.92H15.16a9.92 9.92 0 0 1-9.87-9.91v-1h-1c-2.4 0-4.29-1.9-4.29-4.21v-3.5c0-2.31 1.9-4.31 4.29-4.31ZM60.94 66c3.79 0 6.88-3.1 6.88-6.91v-1H8.18v1c0 3.8 3.09 6.9 6.88 6.9h45.88Zm10.77-10.92c.7 0 1.3-.6 1.3-1.3h.1v-3.4c0-.7-.6-1.3-1.3-1.3H4.3c-.7 0-1.3.6-1.3 1.2v3.5c0 .7.6 1.3 1.3 1.3H71.7ZM39.9 15.62a2 2 0 1 1-4 .01 2 2 0 0 1 4 0Zm-9.98-3a2 2 0 1 0 0-4 2 2 0 0 0 0 4Zm17.95-2a2 2 0 1 1-4 0 2 2 0 0 1 4 0Z" clip-rule="evenodd"/>
  </svg>

  <svg id="gift-icon" viewBox="0 0 63 75">
    <path fill="#81B3D2" d="M60.2 22.1H35.8c13.6-6.8 14.7-11 14.2-13.5-1.1-3.9-5.6-6.9-9.8-5.3-5.5 2.1-7 10.3-8.5 16.2-1.9-6-3.7-13.6-8-17.5A7.3 7.3 0 0 0 18 0c-4 .4-9.7 5.3-7.3 10.8 2.2 5.3 9.5 8.7 14.4 11.4H2.8A2.8 2.8 0 0 0 0 25v11.2C0 37.8 1.3 39 2.8 39h.3v36h57V39h.1c1.6 0 2.8-1.3 2.8-2.8V25c0-1.6-1.3-2.9-2.8-2.9ZM41.8 5.8c2.1-.3 4.9 1.3 5.2 3.2.4 2.7-3.3 5.2-5 6.3-2.5 1.7-4.9 2.6-7.2 4 .8-3.7 2.5-12.9 7-13.5Zm-22.6 9.8c-2.2-1.5-6.4-4.4-6.3-7.7.1-3.6 5.7-6.5 8.7-3.8 3.8 3.3 5.6 11 7 16.4-3.2-1.6-6.2-2.8-9.4-4.9ZM25.1 72H6V39h19.1v33Zm0-36H3V25.1h22.1v11Zm10 36H28V25.1h7.1V72Zm22 0h-19V39h19.1v33h-.1ZM60 36H38.1V25.1H60v11Z"/>
  </svg>


  <svg id="vk-icon" viewBox="0 0 24 14">
    <path fill="#ffffff" fill-rule="evenodd" d="M23.45.95c.17-.55 0-.95-.8-.95h-2.62c-.67 0-.98.35-1.14.73 0 0-1.34 3.2-3.23 5.27-.61.6-.89.8-1.22.8-.17 0-.42-.2-.42-.74V.95c0-.66-.18-.95-.74-.95H9.15c-.42 0-.67.3-.67.6 0 .61.95.76 1.05 2.5v3.8c0 .84-.16.99-.5.99-.88 0-3.05-3.21-4.33-6.89-.25-.71-.5-1-1.17-1H.9C.15 0 0 .35 0 .73c0 .68.89 4.07 4.14 8.55C6.32 12.34 9.38 14 12.15 14c1.67 0 1.88-.37 1.88-1v-2.32c0-.73.16-.88.69-.88.38 0 1.05.2 2.61 1.67C19.11 13.22 19.4 14 20.41 14h2.62c.75 0 1.13-.37.91-1.1-.24-.72-1.09-1.77-2.21-3.02-.62-.7-1.54-1.47-1.81-1.86-.4-.49-.28-.7 0-1.14 0 0 3.2-4.43 3.53-5.93Z" clip-rule="evenodd"/>
  </svg>

  <svg id="telegram-icon" viewBox="0 0 22 18">
    <path fill="#ffffff" d="m21.44 1.62-3.17 14.95c-.24 1.05-.86 1.31-1.75.82l-4.83-3.56-2.33 2.24c-.25.26-.47.47-.97.47l.35-4.91 8.95-8.09c.39-.35-.09-.54-.6-.2L6.01 10.32 1.26 8.82C.22 8.5.21 7.8 1.48 7.3L20.1.11c.87-.32 1.62.2 1.34 1.51Z"/>
  </svg>

  <svg id="youtube-icon" viewBox="0 0 20 14">
    <path fill="#ffffff" d="M17.18 0H2.81C1.31 0 0 1.3 0 2.8v8.3C0 12.7 1.3 14 2.81 14h14.37A2.8 2.8 0 0 0 20 11.2V2.8c.1-1.5-1.2-2.8-2.8-2.8ZM7.03 10.4V3.6L13.87 7l-6.84 3.4Z"/>
  </svg>


  <svg id="tel-icon" viewBox="0 0 58 58">
    <path fill="#E6E6E6" d="M0 0h58v58H0z"/>
    <path fill="#010101" d="M23.6 27.8c1.4 2.8 3.8 5.1 6.6 6.6l2.2-2.2c.3-.3.7-.4 1-.2 1.1.4 2.3.6 3.6.6.6 0 1 .4 1 1V37c0 .6-.4 1-1 1a17 17 0 0 1-17-17c0-.6.4-1 1-1h3.5c.6 0 1 .4 1 1 0 1.2.2 2.4.6 3.6.1.3 0 .7-.2 1l-2.3 2.2Z"/>
  </svg>

  <svg id="email-icon" viewBox="0 0 58 58">
    <path fill="#E6E6E6" d="M0 0h58v58H0z"/>
    <path fill="#000000" d="M29 31c-.3 0-.5-.1-1-.3L21 27v7c0 .5.5 1 1 1h14c.5 0 1-.5 1-1v-7l-7 3.7c-.5.2-.7.3-1 .3Zm7-8H22c-.5 0-1 .5-1 1v.8l8 4.2 8-4.2V24c0-.5-.5-1-1-1Z"/>
  </svg>

  <svg id="tick" viewBox="0 0 22 16">
    <path fill="#333333" d="M21.8 1.3 20.77.23a.84.84 0 0 0-1.14 0L8.3 11.96 2.4 5.84a.84.84 0 0 0-1.14 0L.21 6.93c-.28.3-.28.89 0 1.18l7.42 7.7c.2.19.38.19.57.19.2 0 .38-.1.57-.2L21.61 2.5c.48-.3.48-.79.2-1.18Z"/>
  </svg>


  <svg id="htmlacademy" viewBox="0 0 27 35">
    <path fill="currentColor" d="M13.65 0.449951H13.55L0.0500031 1.84995V26.55L13.55 34.5499L26.95 26.55V1.84995L13.65 0.449951ZM25.05 12.55L13.55 5.74995V5.64995H13.45L13.35 5.54995V5.64995L1.95 12.55V3.54995L13.45 2.34995L25.05 3.54995V12.55ZM13.45 7.24995L24.95 13.95L20.45 16.55L13.35 12.35V13.75L19.25 17.25L18.35 17.75L13.35 14.75V16.15L17.15 18.45L16.35 18.95L13.35 17.15V18.55L15.25 19.65L13.45 20.75L2.05 14.05L13.45 7.24995ZM1.95 15.55L13.35 22.35V23.35L5.45 18.65V20.05L13.45 24.85V25.95L5.45 21.25V22.65L13.45 27.45L21.55 22.55V17.35L24.95 15.35V25.35L13.45 32.25L1.95 25.45V15.55Z"/>
  </svg>

  <svg id="like-icon" viewBox="0 0 23 21">
    <path d="M12.9636 3.78L12.3364 6.825L11.7091 9.45H14.3227H20.8045V11.55C20.8045 11.55 20.8045 11.55 20.8045 11.655L17.7727 18.9H8.36364V8.4L12.9636 3.78ZM2.09091 10.5V18.9V10.5ZM13.8 0L6.9 6.93C6.48182 7.245 6.27273 7.77 6.27273 8.4V18.9C6.27273 20.055 7.21364 21 8.36364 21H17.7727C18.6091 21 19.3409 20.475 19.6545 19.74L22.7909 12.285C22.8955 12.075 22.8955 11.76 22.8955 11.55V9.45H23C23 8.295 22.0591 7.35 20.9091 7.35H14.3227L15.3682 2.52V2.205C15.3682 1.785 15.1591 1.365 14.95 1.05L13.8 0ZM4.18182 8.4H0V21H4.18182V8.4Z"/>
  </svg>

</svg>
